# xmcd
#
# Track frame offsets:
#	150
#	13806
#	33021
#	44877
#	62999
#	81390
#	108706
#	128265
#
# Disc length: 2019 seconds
#
# Revision: 0
# Processed by: cddbd v1.4PL0 Copyright (c) Steve Scherf et al.
# Submitted via: EasyCDDAExtractor 5.0.0.0
#
DISCID=6a07e108
DTITLE=Taj Mahal - Oooh So Good N' Blue 
DYEAR=1973
DGENRE=Blues
TTITLE0=Railroad Bill
TTITLE1=Oh Mama Don't You Know
TTITLE2=Built For Comfort
TTITLE3=Dust My Broom
TTITLE4=Little Red Hen
TTITLE5=Buck Dancer's Choice
TTITLE6=Frankie And Albert
TTITLE7=Teacup's Jazzy Blues Tune
EXTD=
EXTT0=
EXTT1=
EXTT2=
EXTT3=
EXTT4=
EXTT5=
EXTT6=
EXTT7=
PLAYORDER=
